<?xml version="1.0" encoding="utf-8"?>
<!-- Generator: Adobe Illustrator 20.0.0, SVG Export Plug-In . SVG Version: 6.00 Build 0)  -->
<svg version="1.1" id="Layer_1" xmlns="http://www.w3.org/2000/svg" xmlns:xlink="http://www.w3.org/1999/xlink" x="0px" y="0px"
	 viewBox="0 0 745.437 958.635" style="enable-background:new 0 0 745.437 958.635;" xml:space="preserve">
<style type="text/css">
	.st0{fill:#DA1F3D;}
	.st1{fill:#FFFFFF;}
	.st2{fill:#002E6E;}
</style>
<g>
	<g>
		<path class="st2" d="M0,140.199v466.553c73.266,74.616,148.976,155.292,226.703,228.369V450.324
			c-21.663-20.363-43.165-41.321-64.506-62.568l-1.478,288.567c-17.936-18.325-35.744-36.683-53.347-54.841
			c-13.387-13.809-27.085-27.934-40.716-41.91V197.839c27.201-3.622,54.519-6.766,81.859-9.426c4.76-0.467,9.526-0.917,14.287-1.35
			l-0.067,95.449c21.163,21.063,42.488,41.838,63.968,62.035c0.211-49.781,0.422-179.447,0.639-229.239
			c-46.193,2.816-92.319,6.988-138.328,12.509C59.285,131.383,29.606,135.511,0,140.199z"/>
		<path class="st2" d="M0,140.199v466.553c73.266,74.616,148.976,155.292,226.703,228.369V450.324
			c-21.663-20.363-43.165-41.321-64.506-62.568l-1.478,288.567c-17.936-18.325-35.744-36.683-53.347-54.841
			c-13.387-13.809-27.085-27.934-40.716-41.91V197.839c27.201-3.622,54.519-6.766,81.859-9.426c4.76-0.467,9.526-0.917,14.287-1.35
			l-0.067,95.449c21.163,21.063,42.488,41.838,63.968,62.035c0.211-49.781,0.422-179.447,0.639-229.239
			c-46.193,2.816-92.319,6.988-138.328,12.509C59.285,131.383,29.606,135.511,0,140.199z"/>
		<path class="st2" d="M489.933,568.596l-0.85-118.949v-0.006L323.365,289.057l0.383-111.014c16.358-0.35,32.711-0.522,48.97-0.522
			c16.259,0,32.611,0.172,48.97,0.522l0.961,110.299c22.063,21.324,44.21,42.649,66.434,63.951l-0.972-238.634
			c-0.455-0.022-0.911-0.044-1.366-0.067c-0.178-0.005-0.361-0.017-0.539-0.022c-76.077-3.627-152.292-3.605-228.369,0.067
			c-0.172,0.006-0.339,0.017-0.511,0.022c-0.135,37.008-0.268,74.012-0.401,111.016l-0.21-0.203l-0.006,0.378l-0.45,125.774
			l166.874,161.71l0.916,318.927c-17.708,15.598-34.756,29.979-51.331,43.299c-16.575-13.32-33.617-27.696-51.331-43.299
			l1.294-313.317l-66.423-64.701l-1.633,407.707c39.044,35.5,78.504,68.628,118.092,97.684
			c39.588-29.057,79.048-62.185,118.092-97.684c-0.272-75.205-0.544-217.077-0.816-292.298L489.933,568.596z"/>
		<path class="st2" d="M489.933,568.596l-0.85-118.949v-0.006L323.365,289.057l0.383-111.014c16.358-0.35,32.711-0.522,48.97-0.522
			c16.259,0,32.611,0.172,48.97,0.522l0.961,110.299c22.063,21.324,44.21,42.649,66.434,63.951l-0.972-238.634
			c-0.455-0.022-0.911-0.044-1.366-0.067c-0.178-0.005-0.361-0.017-0.539-0.022c-76.077-3.627-152.292-3.605-228.369,0.067
			c-0.172,0.006-0.339,0.017-0.511,0.022c-0.135,37.008-0.268,74.012-0.401,111.016l-0.21-0.203l-0.006,0.378l-0.45,125.774
			l166.874,161.71l0.916,318.927c-17.708,15.598-34.756,29.979-51.331,43.299c-16.575-13.32-33.617-27.696-51.331-43.299
			l1.294-313.317l-66.423-64.701l-1.633,407.707c39.044,35.5,78.504,68.628,118.092,97.684
			c39.588-29.057,79.048-62.185,118.092-97.684c-0.272-75.205-0.544-217.077-0.816-292.298L489.933,568.596z"/>
		<path class="st2" d="M517.073,115.247c-0.183-0.017-0.361-0.028-0.544-0.033c-0.289-0.022-0.572-0.039-0.861-0.056
			c0.194,46.304,0.394,92.608,0.589,138.906c0.828,193.758,1.65,387.444,2.477,581.057c22.096-20.774,44.032-42.166,65.795-63.857
			l-0.855-201.69c0.194-0.2,0.394-0.394,0.589-0.589c31.884-31.778,63.401-64.206,94.518-96.29v202.545
			c22.435-23.13,44.654-46.082,66.656-68.489V279.065v-1.694V140.199C669.666,128.195,593.45,119.874,517.073,115.247z
			 M678.781,269.472v76.388c-31.289,32.262-62.984,64.873-95.057,96.823l-0.5-116.698l-0.283-66.956l-0.306-71.966
			c32.106,2.927,64.206,6.521,96.146,10.776V269.472z"/>
		<path class="st2" d="M517.073,115.247c-0.183-0.017-0.361-0.028-0.544-0.033c-0.289-0.022-0.572-0.039-0.861-0.056
			c0.194,46.304,0.394,92.608,0.589,138.906c0.828,193.758,1.65,387.444,2.477,581.057c22.096-20.774,44.032-42.166,65.795-63.857
			l-0.855-201.69c0.194-0.2,0.394-0.394,0.589-0.589c31.884-31.778,63.401-64.206,94.518-96.29v202.545
			c22.435-23.13,44.654-46.082,66.656-68.489V279.065v-1.694V140.199C669.666,128.195,593.45,119.874,517.073,115.247z
			 M678.781,269.472v76.388c-31.289,32.262-62.984,64.873-95.057,96.823l-0.5-116.698l-0.283-66.956l-0.306-71.966
			c32.106,2.927,64.206,6.521,96.146,10.776V269.472z"/>
	</g>
	<path class="st2" d="M491.333,20.011c-9.577-0.452-19.171-0.846-28.777-1.188v-7.714C462.556,4.974,457.582,0,451.447,0
		s-11.109,4.974-11.109,11.109v7.031c-18.811-0.503-37.657-0.798-56.51-0.88v-6.15C383.828,4.974,378.854,0,372.719,0
		c-6.136,0-11.109,4.974-11.109,11.109v6.15c-18.853,0.082-37.698,0.378-56.51,0.88v-7.031C305.1,4.974,300.126,0,293.99,0
		s-11.109,4.974-11.109,11.109v7.714c-9.606,0.342-19.201,0.737-28.778,1.188c-6.129,0.289-10.863,5.492-10.573,11.62
		c0.289,6.129,5.48,10.865,11.62,10.573c9.229-0.435,18.475-0.815,27.731-1.147v10.049c0,6.136,4.974,11.109,11.109,11.109
		S305.1,57.242,305.1,51.107v-10.74c18.811-0.507,37.656-0.804,56.51-0.888v11.628c0,6.136,4.974,11.109,11.109,11.109
		c6.136,0,11.109-4.974,11.109-11.109V39.479c18.853,0.083,37.699,0.381,56.51,0.888v10.74c0,6.136,4.974,11.109,11.109,11.109
		s11.109-4.974,11.109-11.109V41.058c9.256,0.332,18.502,0.712,27.73,1.147c0.178,0.009,0.355,0.012,0.532,0.012
		c5.895,0,10.808-4.636,11.088-10.586C502.196,25.503,497.462,20.301,491.333,20.011z"/>
</g>
</svg>
